<svg width="25" height="24" viewBox="0 0 25 24" fill="none" xmlns="http://www.w3.org/2000/svg">
<path d="M21.25 21L16.907 16.657M16.907 16.657C17.6499 15.9141 18.2392 15.0321 18.6412 14.0615C19.0433 13.0909 19.2502 12.0506 19.2502 11C19.2502 9.94936 19.0433 8.90905 18.6412 7.93842C18.2392 6.96779 17.6499 6.08585 16.907 5.34296C16.1641 4.60007 15.2822 4.01078 14.3115 3.60874C13.3409 3.20669 12.3006 2.99976 11.25 2.99976C10.1994 2.99976 9.15908 3.20669 8.18845 3.60874C7.21782 4.01078 6.33589 4.60007 5.593 5.34296C4.09267 6.84329 3.24979 8.87818 3.24979 11C3.24979 13.1217 4.09267 15.1566 5.593 16.657C7.09333 18.1573 9.12821 19.0002 11.25 19.0002C13.3718 19.0002 15.4067 18.1573 16.907 16.657Z" stroke="#ADADAD" stroke-width="2" stroke-linecap="round" stroke-linejoin="round"/>
<path d="M21.25 21L16.907 16.657M16.907 16.657C17.6499 15.9141 18.2392 15.0321 18.6412 14.0615C19.0433 13.0909 19.2502 12.0506 19.2502 11C19.2502 9.94936 19.0433 8.90905 18.6412 7.93842C18.2392 6.96779 17.6499 6.08585 16.907 5.34296C16.1641 4.60007 15.2822 4.01078 14.3115 3.60874C13.3409 3.20669 12.3006 2.99976 11.25 2.99976C10.1994 2.99976 9.15908 3.20669 8.18845 3.60874C7.21782 4.01078 6.33589 4.60007 5.593 5.34296C4.09267 6.84329 3.24979 8.87818 3.24979 11C3.24979 13.1217 4.09267 15.1566 5.593 16.657C7.09333 18.1573 9.12821 19.0002 11.25 19.0002C13.3718 19.0002 15.4067 18.1573 16.907 16.657Z" stroke="#ADADAD" stroke-width="2" stroke-linecap="round" stroke-linejoin="round"/>
</svg> 