<svg width="21" height="20" viewBox="0 0 21 20" fill="none" xmlns="http://www.w3.org/2000/svg">
<path d="M19.25 19L14.907 14.657M14.907 14.657C15.6499 13.9141 16.2392 13.0321 16.6412 12.0615C17.0433 11.0909 17.2502 10.0506 17.2502 8.99996C17.2502 7.94936 17.0433 6.90905 16.6412 5.93842C16.2392 4.96779 15.6499 4.08585 14.907 3.34296C14.1641 2.60007 13.2822 2.01078 12.3115 1.60874C11.3409 1.20669 10.3006 0.999756 9.25 0.999756C8.1994 0.999756 7.15908 1.20669 6.18845 1.60874C5.21782 2.01078 4.33589 2.60007 3.593 3.34296C2.09267 4.84329 1.24979 6.87818 1.24979 8.99996C1.24979 11.1217 2.09267 13.1566 3.593 14.657C5.09333 16.1573 7.12821 17.0002 9.25 17.0002C11.3718 17.0002 13.4067 16.1573 14.907 14.657Z" stroke="#ADADAD" stroke-width="2" stroke-linecap="round" stroke-linejoin="round"/>
<path d="M19.25 19L14.907 14.657M14.907 14.657C15.6499 13.9141 16.2392 13.0321 16.6412 12.0615C17.0433 11.0909 17.2502 10.0506 17.2502 8.99996C17.2502 7.94936 17.0433 6.90905 16.6412 5.93842C16.2392 4.96779 15.6499 4.08585 14.907 3.34296C14.1641 2.60007 13.2822 2.01078 12.3115 1.60874C11.3409 1.20669 10.3006 0.999756 9.25 0.999756C8.1994 0.999756 7.15908 1.20669 6.18845 1.60874C5.21782 2.01078 4.33589 2.60007 3.593 3.34296C2.09267 4.84329 1.24979 6.87818 1.24979 8.99996C1.24979 11.1217 2.09267 13.1566 3.593 14.657C5.09333 16.1573 7.12821 17.0002 9.25 17.0002C11.3718 17.0002 13.4067 16.1573 14.907 14.657Z" stroke="url(#paint0_linear_32_387)" stroke-width="2" stroke-linecap="round" stroke-linejoin="round"/>
<defs>
<linearGradient id="paint0_linear_32_387" x1="1.24979" y1="9.99986" x2="19.25" y2="9.99986" gradientUnits="userSpaceOnUse">
<stop stop-color="#3E54F5"/>
<stop offset="1" stop-color="#631497"/>
</linearGradient>
</defs>
</svg> 