<svg width="21" height="20" viewBox="0 0 21 20" fill="none" xmlns="http://www.w3.org/2000/svg">
<path d="M19 8.00003C19 7.73481 18.8946 7.48046 18.7071 7.29292C18.5196 7.10539 18.2652 7.00003 18 7.00003C17.7348 7.00003 17.4804 7.10539 17.2929 7.29292C17.1053 7.48046 17 7.73481 17 8.00003H19ZM4.99999 8.00003C4.99999 7.73481 4.89463 7.48046 4.7071 7.29292C4.51956 7.10539 4.26521 7.00003 3.99999 7.00003C3.73477 7.00003 3.48042 7.10539 3.29288 7.29292C3.10535 7.48046 2.99999 7.73481 2.99999 8.00003H4.99999ZM19.293 10.707C19.4816 10.8892 19.7342 10.99 19.9964 10.9877C20.2586 10.9854 20.5094 10.8803 20.6948 10.6948C20.8802 10.5094 20.9854 10.2586 20.9877 9.99643C20.9899 9.73423 20.8891 9.48163 20.707 9.29303L19.293 10.707ZM11 1.00003L11.707 0.293031C11.5195 0.105559 11.2652 0.000244141 11 0.000244141C10.7348 0.000244141 10.4805 0.105559 10.293 0.293031L11 1.00003ZM1.29299 9.29303C1.19748 9.38528 1.1213 9.49562 1.06889 9.61763C1.01648 9.73963 0.988893 9.87085 0.987739 10.0036C0.986585 10.1364 1.01189 10.2681 1.06217 10.391C1.11245 10.5139 1.1867 10.6255 1.28059 10.7194C1.37449 10.8133 1.48614 10.8876 1.60904 10.9379C1.73193 10.9881 1.86361 11.0134 1.99639 11.0123C2.12917 11.0111 2.26039 10.9835 2.38239 10.9311C2.5044 10.8787 2.61474 10.8025 2.70699 10.707L1.29299 9.29303ZM5.99999 20H16V18H5.99999V20ZM19 17V8.00003H17V17H19ZM4.99999 17V8.00003H2.99999V17H4.99999ZM20.707 9.29303L11.707 0.293031L10.293 1.70703L19.293 10.707L20.707 9.29303ZM10.293 0.293031L1.29299 9.29303L2.70699 10.707L11.707 1.70703L10.293 0.293031ZM16 20C16.7956 20 17.5587 19.684 18.1213 19.1214C18.6839 18.5587 19 17.7957 19 17H17C17 17.2652 16.8946 17.5196 16.7071 17.7071C16.5196 17.8947 16.2652 18 16 18V20ZM5.99999 18C5.73477 18 5.48042 17.8947 5.29288 17.7071C5.10535 17.5196 4.99999 17.2652 4.99999 17H2.99999C2.99999 17.7957 3.31606 18.5587 3.87867 19.1214C4.44128 19.684 5.20434 20 5.99999 20V18Z" fill="#ADADAD"/>
<path d="M19 8.00003C19 7.73481 18.8946 7.48046 18.7071 7.29292C18.5196 7.10539 18.2652 7.00003 18 7.00003C17.7348 7.00003 17.4804 7.10539 17.2929 7.29292C17.1053 7.48046 17 7.73481 17 8.00003H19ZM4.99999 8.00003C4.99999 7.73481 4.89463 7.48046 4.7071 7.29292C4.51956 7.10539 4.26521 7.00003 3.99999 7.00003C3.73477 7.00003 3.48042 7.10539 3.29288 7.29292C3.10535 7.48046 2.99999 7.73481 2.99999 8.00003H4.99999ZM19.293 10.707C19.4816 10.8892 19.7342 10.99 19.9964 10.9877C20.2586 10.9854 20.5094 10.8803 20.6948 10.6948C20.8802 10.5094 20.9854 10.2586 20.9877 9.99643C20.9899 9.73423 20.8891 9.48163 20.707 9.29303L19.293 10.707ZM11 1.00003L11.707 0.293031C11.5195 0.105559 11.2652 0.000244141 11 0.000244141C10.7348 0.000244141 10.4805 0.105559 10.293 0.293031L11 1.00003ZM1.29299 9.29303C1.19748 9.38528 1.1213 9.49562 1.06889 9.61763C1.01648 9.73963 0.988893 9.87085 0.987739 10.0036C0.986585 10.1364 1.01189 10.2681 1.06217 10.391C1.11245 10.5139 1.1867 10.6255 1.28059 10.7194C1.37449 10.8133 1.48614 10.8876 1.60904 10.9379C1.73193 10.9881 1.86361 11.0134 1.99639 11.0123C2.12917 11.0111 2.26039 10.9835 2.38239 10.9311C2.5044 10.8787 2.61474 10.8025 2.70699 10.707L1.29299 9.29303ZM5.99999 20H16V18H5.99999V20ZM19 17V8.00003H17V17H19ZM4.99999 17V8.00003H2.99999V17H4.99999ZM20.707 9.29303L11.707 0.293031L10.293 1.70703L19.293 10.707L20.707 9.29303ZM10.293 0.293031L1.29299 9.29303L2.70699 10.707L11.707 1.70703L10.293 0.293031ZM16 20C16.7956 20 17.5587 19.684 18.1213 19.1214C18.6839 18.5587 19 17.7957 19 17H17C17 17.2652 16.8946 17.5196 16.7071 17.7071C16.5196 17.8947 16.2652 18 16 18V20ZM5.99999 18C5.73477 18 5.48042 17.8947 5.29288 17.7071C5.10535 17.5196 4.99999 17.2652 4.99999 17H2.99999C2.99999 17.7957 3.31606 18.5587 3.87867 19.1214C4.44128 19.684 5.20434 20 5.99999 20V18Z" fill="url(#paint0_linear_12_136)"/>
<defs>
<linearGradient id="paint0_linear_12_136" x1="0.987701" y1="10.0001" x2="20.9877" y2="10.0001" gradientUnits="userSpaceOnUse">
<stop stop-color="#3E54F5"/>
<stop offset="1" stop-color="#631497"/>
</linearGradient>
</defs>
</svg> 